
        <svg xmlns="http://www.w3.org/2000/svg" xmlns:xlink="http://www.w3.org/1999/xlink" version="1.1" width="3206.896551724138" 
        height="3186.206896551724" viewBox="0 0 3206.896551724138 3186.206896551724">
			
			<g transform="scale(10.344827586206897) translate(10, 10)">
				<defs id="SvgjsDefs3445"><linearGradient id="SvgjsLinearGradient3452"><stop id="SvgjsStop3453" stop-color="#8f5e25" offset="0"></stop><stop id="SvgjsStop3454" stop-color="#fbf4a1" offset="0.5"></stop><stop id="SvgjsStop3455" stop-color="#8f5e25" offset="1"></stop></linearGradient><linearGradient id="SvgjsLinearGradient3456"><stop id="SvgjsStop3457" stop-color="#8f5e25" offset="0"></stop><stop id="SvgjsStop3458" stop-color="#fbf4a1" offset="0.5"></stop><stop id="SvgjsStop3459" stop-color="#8f5e25" offset="1"></stop></linearGradient><linearGradient id="SvgjsLinearGradient3460"><stop id="SvgjsStop3461" stop-color="#8f5e25" offset="0"></stop><stop id="SvgjsStop3462" stop-color="#fbf4a1" offset="0.5"></stop><stop id="SvgjsStop3463" stop-color="#8f5e25" offset="1"></stop></linearGradient></defs><g id="SvgjsG3446" featureKey="rootContainer" transform="matrix(1,0,0,1,0,0)" fill="url(#SvgjsLinearGradient3452)"><path xmlns="http://www.w3.org/2000/svg" fill-rule="evenodd" d=" M0,0 H290 V288 H0,0 z M2,2 H288 V286 H2,2 z M6,6 H284 V282 H6 z M8,8 H282 V280 H6,8 z "></path></g><g id="SvgjsG3447" featureKey="symbolFeature-0" transform="matrix(1.0141979451109338,0,0,1.0141979451109338,94.12011348889328,47.85930421571798)" fill="url(#SvgjsLinearGradient3456)"><title xmlns="http://www.w3.org/2000/svg">Artboard 25</title><path xmlns="http://www.w3.org/2000/svg" d="M47.75,77.45,37.11,93.64A9.57,9.57,0,0,1,31,97.74a9.23,9.23,0,0,1-1.8.18,8.84,8.84,0,0,1-5-1.53,9.12,9.12,0,0,1-2.12-13.11l14.65-19A3,3,0,1,1,41.51,68l-14.65,19a3.12,3.12,0,0,0,.74,4.48,3,3,0,0,0,2.25.43,3.54,3.54,0,0,0,2.25-1.51L42.74,74.15a3,3,0,1,1,5,3.29Zm41.81-73c-4-2.87-9.44-3.11-15.23-.66A35.06,35.06,0,0,0,60,15.83c-5.21,7.31-7.64,15.72-6.5,22.5a8.27,8.27,0,0,1-.35,4,3,3,0,0,0,5.68,1.93,14.28,14.28,0,0,0,.59-6.93c-.87-5.17,1.23-12.07,5.47-18a29,29,0,0,1,11.81-10c2.2-.93,6.35-2.16,9.41,0s3.25,6.51,3.09,8.89a29,29,0,0,1-5.63,14.43c-4.24,6-10.09,10.19-15.26,11.05A14.31,14.31,0,0,0,62,46.41a15.56,15.56,0,0,0-1.42,1.23,3,3,0,0,0,4.19,4.29,9.3,9.3,0,0,1,.87-.75,8.27,8.27,0,0,1,3.61-1.59C76,48.46,83.21,43.42,88.42,36.1a35.07,35.07,0,0,0,6.73-17.52C95.57,12.31,93.58,7.28,89.56,4.41ZM46.34,41.24a13.41,13.41,0,0,0-1.44-13L27.06,3.34a3,3,0,0,0-4.88,3.49L40,31.75A7.39,7.39,0,0,1,40.76,39a5.52,5.52,0,0,0,.63,5.62l33,42.68a2.85,2.85,0,1,1-4.63,3.32l-29.9-44.9a5.52,5.52,0,0,0-5.13-2.39,7.38,7.38,0,0,1-6.67-3L10.23,15.41A3,3,0,0,0,5.35,18.9L23.2,43.82a13.42,13.42,0,0,0,11.86,5.53L64.77,94a8.77,8.77,0,0,0,5.78,3.8,9,9,0,0,0,1.62.15,8.85,8.85,0,0,0,7-14.26Zm-13.77-4A3,3,0,0,0,35,32.49L18.73,9.21a3,3,0,0,0-4.92,3.44l16.3,23.28A3,3,0,0,0,32.57,37.21Z"></path></g><g id="SvgjsG3448" featureKey="nameFeature-0" transform="matrix(2.4700988627520295,0,0,2.4700988627520295,45.65262543619566,135.18511929806394)" fill="url(#SvgjsLinearGradient3460)"><path d="M12.6 41.48 l-10.84 -0.24 l0.08 -25.56 l4.8 -0.16 l-1.28 21.56 l7.24 0.56 l0 3.84 z M26.2 41.48 l-1.24 -6 l-4.96 0.48 l-1 5.72 l-4.2 -1.12 l4.92 -26.24 l4.8 -0.4 l6.76 26.96 z M20.759999999999998 31.8 l3.32 -0.64 l-1.72 -8.36 z M41.44 39 l-4.72 -0.44 l-2.84 -23.16 l3.84 -1.16 l2.2 14.56 l5.48 -15.92 l3.52 0.68 z M59.4 36.88 l0.32 3.04 l-8.2 0.68 l-0.04 -3.72 l1.64 0 c0.2 -3.44 0.56 -13.4 0.52 -17.44 l-2.52 0.08 l0.12 -3.8 l8.24 0.16 l0.16 3.32 l-2.36 0.08 l0.24 17.6 l1.88 0 z M78.68 14.48 l-1.2 3.4 s-7.4 13.12 -9.88 17.48 l8.32 -1.12 l-0.64 5.44 l-13.16 0.48 l-0.12 -2.04 l-0.08 0.04 l0 -2.04 l10.84 -17.68 l-8.88 1.04 l0.36 -4.52 z"></path></g>
			</g>
		</svg>
	